<svg width="18" height="15" viewBox="0 0 18 15" fill="none" xmlns="http://www.w3.org/2000/svg">
<path d="M17.2211 7.3844C17.2211 7.62213 17.1776 7.84537 17.0906 8.05411C17.0036 8.26285 16.879 8.4455 16.7166 8.60205C16.5543 8.75861 16.3716 8.88037 16.1687 8.96735C15.9657 9.05432 15.7425 9.10071 15.499 9.10651H6.42746L8.87146 11.5418C9.03381 11.6984 9.15848 11.8839 9.24545 12.0984C9.33243 12.313 9.37592 12.5333 9.37592 12.7595C9.37592 12.9972 9.33243 13.2204 9.24545 13.4292C9.15848 13.6379 9.03381 13.8206 8.87146 13.9771C8.70911 14.1337 8.52646 14.2554 8.32352 14.3424C8.12057 14.4294 7.89734 14.4758 7.65381 14.4816C7.42767 14.4816 7.21024 14.4381 7.0015 14.3511C6.79276 14.2641 6.60431 14.1395 6.43616 13.9771L1.08719 8.61945C0.895844 8.4281 0.759583 8.23096 0.678406 8.02802C0.597229 7.82507 0.556641 7.58734 0.556641 7.31482C0.556641 7.08868 0.605927 6.87704 0.704498 6.6799C0.80307 6.48276 0.930634 6.30591 1.08719 6.14935L6.43616 0.791687C6.59851 0.629333 6.78696 0.504669 7.0015 0.417694C7.21603 0.330719 7.43637 0.287231 7.66251 0.287231C7.90024 0.287231 8.12347 0.333618 8.33221 0.426392C8.54095 0.519165 8.7207 0.643829 8.87146 0.800385C9.02222 0.95694 9.14398 1.13959 9.23676 1.34833C9.32953 1.55707 9.37592 1.7803 9.37592 2.01804C9.37592 2.24417 9.33243 2.46161 9.24545 2.67035C9.15848 2.87909 9.03381 3.06464 8.87146 3.22699L6.42746 5.66229H15.499C15.7367 5.66229 15.9599 5.70578 16.1687 5.79276C16.3774 5.87973 16.5601 6.00439 16.7166 6.16675C16.8732 6.3291 16.9949 6.51175 17.0819 6.71469C17.1689 6.91763 17.2153 7.14087 17.2211 7.3844Z" fill="#EEEBE5"/>
</svg>
