<svg width="18" height="16" viewBox="0 0 18 16" fill="none" xmlns="http://www.w3.org/2000/svg">
<path d="M0.77893 8.0531C0.77893 7.81537 0.822418 7.59213 0.909393 7.38339C0.996368 7.17465 1.12103 6.99201 1.28339 6.83545C1.44574 6.6789 1.62839 6.55713 1.83133 6.47016C2.03427 6.38318 2.25751 6.33679 2.50104 6.33099L11.5725 6.33099L9.12854 3.89569C8.96619 3.73914 8.84152 3.55359 8.75455 3.33905C8.66757 3.12451 8.62408 2.90418 8.62408 2.67804C8.62408 2.44031 8.66757 2.21707 8.75455 2.00833C8.84152 1.79959 8.96619 1.61694 9.12854 1.46039C9.29089 1.30383 9.47354 1.18207 9.67648 1.09509C9.87942 1.00812 10.1027 0.961732 10.3462 0.955933C10.5723 0.955933 10.7898 0.999421 10.9985 1.0864C11.2072 1.17337 11.3957 1.29804 11.5638 1.46039L16.9128 6.81805C17.1042 7.0094 17.2404 7.20654 17.3216 7.40948C17.4028 7.61243 17.4434 7.85016 17.4434 8.12268C17.4434 8.34882 17.3941 8.56046 17.2955 8.7576C17.1969 8.95474 17.0694 9.13159 16.9128 9.28815L11.5638 14.6458C11.4015 14.8082 11.213 14.9328 10.9985 15.0198C10.784 15.1068 10.5636 15.1503 10.3375 15.1503C10.0998 15.1503 9.87653 15.1039 9.66779 15.0111C9.45905 14.9183 9.2793 14.7937 9.12854 14.6371C8.97778 14.4806 8.85602 14.2979 8.76324 14.0892C8.67047 13.8804 8.62408 13.6572 8.62408 13.4195C8.62408 13.1933 8.66757 12.9759 8.75455 12.7672C8.84152 12.5584 8.96619 12.3729 9.12854 12.2105L11.5725 9.77521L2.50104 9.77521C2.26331 9.77521 2.04007 9.73172 1.83133 9.64475C1.62259 9.55777 1.43994 9.43311 1.28339 9.27075C1.12683 9.1084 1.00507 8.92575 0.91809 8.72281C0.831115 8.51987 0.784728 8.29663 0.77893 8.0531Z" fill="#EEEBE5"/>
</svg>
